# MagicaVoxel @ Ephtracy

# group
o 

# material
mtllib Interruptores.mtl
usemtl palette

# normals
vn -1 0 0
vn 1 0 0
vn 0 0 1
vn 0 0 -1
vn 0 -1 0
vn 0 1 0

# texcoords
vt 0.00195312 0.5
vt 0.00585938 0.5
vt 0.00976562 0.5
vt 0.0136719 0.5
vt 0.0175781 0.5
vt 0.0214844 0.5
vt 0.0253906 0.5
vt 0.0292969 0.5
vt 0.0332031 0.5
vt 0.0371094 0.5
vt 0.0410156 0.5
vt 0.0449219 0.5
vt 0.0488281 0.5
vt 0.0527344 0.5
vt 0.0566406 0.5
vt 0.0605469 0.5
vt 0.0644531 0.5
vt 0.0683594 0.5
vt 0.0722656 0.5
vt 0.0761719 0.5
vt 0.0800781 0.5
vt 0.0839844 0.5
vt 0.0878906 0.5
vt 0.0917969 0.5
vt 0.0957031 0.5
vt 0.0996094 0.5
vt 0.103516 0.5
vt 0.107422 0.5
vt 0.111328 0.5
vt 0.115234 0.5
vt 0.119141 0.5
vt 0.123047 0.5
vt 0.126953 0.5
vt 0.130859 0.5
vt 0.134766 0.5
vt 0.138672 0.5
vt 0.142578 0.5
vt 0.146484 0.5
vt 0.150391 0.5
vt 0.154297 0.5
vt 0.158203 0.5
vt 0.162109 0.5
vt 0.166016 0.5
vt 0.169922 0.5
vt 0.173828 0.5
vt 0.177734 0.5
vt 0.181641 0.5
vt 0.185547 0.5
vt 0.189453 0.5
vt 0.193359 0.5
vt 0.197266 0.5
vt 0.201172 0.5
vt 0.205078 0.5
vt 0.208984 0.5
vt 0.212891 0.5
vt 0.216797 0.5
vt 0.220703 0.5
vt 0.224609 0.5
vt 0.228516 0.5

# verts
v -0.7 0 0.7
v -0.7 0 0.6
v -0.7 0 0.5
v -0.7 0 0.4
v -0.7 0 0.3
v -0.7 0 0.2
v -0.7 0 0.1
v -0.7 0 0
v -0.7 0.1 0.7
v -0.7 0.1 0.6
v -0.7 0.1 0.5
v -0.7 0.1 0.4
v -0.7 0.1 0.3
v -0.7 0.1 0.2
v -0.7 0.1 0.1
v -0.7 0.1 0
v -0.7 0.2 0.6
v -0.7 0.2 0.5
v -0.7 0.2 0.4
v -0.7 0.2 0.3
v -0.7 0.2 0.2
v -0.7 0.2 0.1
v -0.6 0.1 0.7
v -0.6 0.1 0.6
v -0.6 0.1 0.1
v -0.6 0.1 0
v -0.6 0.2 0.7
v -0.6 0.2 0.6
v -0.6 0.2 0.5
v -0.6 0.2 0.4
v -0.6 0.2 0.3
v -0.6 0.2 0.1
v -0.6 0.2 0
v -0.6 0.3 0.6
v -0.6 0.3 0.5
v -0.6 0.3 0.4
v -0.6 0.3 0.3
v -0.1 0.2 0.4
v -0.1 0.2 0.3
v -0.1 0.2 0.2
v -0.1 0.2 0.1
v -0.1 0.3 0.4
v -0.1 0.3 0.3
v -0.1 0.3 0.2
v -0.1 0.3 0.1
v -0.2 0.2 0.6
v -0.2 0.2 0.5
v -0.2 0.2 0.4
v -0.2 0.2 0.3
v -0.2 0.3 0.6
v -0.2 0.3 0.5
v -0.2 0.3 0.4
v -0.2 0.3 0.3
v 0.3 0.1 0.7
v 0.3 0.1 0.6
v 0.3 0.1 0.1
v 0.3 0.1 0
v 0.3 0.2 0.7
v 0.3 0.2 0.6
v 0.3 0.2 0.4
v 0.3 0.2 0.3
v 0.3 0.2 0.2
v 0.3 0.2 0.1
v 0.3 0.2 0
v 0.3 0.3 0.4
v 0.3 0.3 0.2
v 0.3 0.3 0.1
v 0.4 0 0.7
v 0.4 0 0.6
v 0.4 0 0.5
v 0.4 0 0.4
v 0.4 0 0.3
v 0.4 0 0.2
v 0.4 0 0.1
v 0.4 0 0
v 0.4 0.1 0.7
v 0.4 0.1 0.6
v 0.4 0.1 0.5
v 0.4 0.1 0.4
v 0.4 0.1 0.3
v 0.4 0.1 0.2
v 0.4 0.1 0.1
v 0.4 0.1 0
v 0.4 0.2 0.6
v 0.4 0.2 0.5
v 0.4 0.2 0.4
v 0.4 0.2 0.3
v 0.4 0.2 0.2
v 0.4 0.2 0.1
v -0.7 0 0.7
v -0.7 0.1 0.7
v -0.6 0 0.7
v -0.6 0.1 0.7
v -0.6 0.2 0.7
v -0.5 0 0.7
v -0.5 0.1 0.7
v -0.5 0.2 0.7
v -0.4 0 0.7
v -0.4 0.1 0.7
v -0.4 0.2 0.7
v -0.3 0 0.7
v -0.3 0.1 0.7
v -0.3 0.2 0.7
v -0.2 0 0.7
v -0.2 0.1 0.7
v -0.2 0.2 0.7
v -0.1 0.1 0.7
v -0.1 0.2 0.7
v 0 0 0.7
v 0 0.1 0.7
v 0 0.2 0.7
v 0.1 0 0.7
v 0.1 0.1 0.7
v 0.1 0.2 0.7
v 0.2 0 0.7
v 0.2 0.1 0.7
v 0.2 0.2 0.7
v 0.3 0 0.7
v 0.3 0.1 0.7
v 0.3 0.2 0.7
v 0.4 0 0.7
v 0.4 0.1 0.7
v -0.7 0.1 0.6
v -0.7 0.2 0.6
v -0.6 0.1 0.6
v -0.6 0.2 0.6
v -0.6 0.3 0.6
v -0.5 0.2 0.6
v -0.5 0.3 0.6
v -0.4 0.2 0.6
v -0.3 0.2 0.6
v -0.3 0.3 0.6
v -0.2 0.2 0.6
v -0.2 0.3 0.6
v 0.3 0.1 0.6
v 0.3 0.2 0.6
v 0.4 0.1 0.6
v 0.4 0.2 0.6
v -0.1 0.2 0.4
v -0.1 0.3 0.4
v 0 0.2 0.4
v 0 0.3 0.4
v 0.1 0.2 0.4
v 0.1 0.3 0.4
v 0.2 0.2 0.4
v 0.2 0.3 0.4
v 0.3 0.2 0.4
v 0.3 0.3 0.4
v -0.6 0.2 0.3
v -0.6 0.3 0.3
v -0.5 0.2 0.3
v -0.5 0.3 0.3
v -0.4 0.2 0.3
v -0.4 0.3 0.3
v -0.3 0.2 0.3
v -0.3 0.3 0.3
v -0.2 0.2 0.3
v -0.2 0.3 0.3
v -0.7 0.1 0.1
v -0.7 0.2 0.1
v -0.6 0.1 0.1
v -0.6 0.2 0.1
v -0.1 0.2 0.1
v -0.1 0.3 0.1
v 0 0.2 0.1
v 0 0.3 0.1
v 0.1 0.2 0.1
v 0.2 0.2 0.1
v 0.2 0.3 0.1
v 0.3 0.1 0.1
v 0.3 0.2 0.1
v 0.3 0.3 0.1
v 0.4 0.1 0.1
v 0.4 0.2 0.1
v -0.7 0 0
v -0.7 0.1 0
v -0.6 0 0
v -0.6 0.1 0
v -0.6 0.2 0
v -0.5 0 0
v -0.5 0.1 0
v -0.5 0.2 0
v -0.4 0 0
v -0.4 0.1 0
v -0.4 0.2 0
v -0.3 0 0
v -0.3 0.1 0
v -0.3 0.2 0
v -0.2 0 0
v -0.2 0.1 0
v -0.2 0.2 0
v -0.1 0.1 0
v -0.1 0.2 0
v 0 0 0
v 0 0.1 0
v 0 0.2 0
v 0.1 0 0
v 0.1 0.1 0
v 0.1 0.2 0
v 0.2 0 0
v 0.2 0.1 0
v 0.2 0.2 0
v 0.3 0 0
v 0.3 0.1 0
v 0.3 0.2 0
v 0.4 0 0
v 0.4 0.1 0
v -0.7 0 0.7
v -0.6 0 0.7
v -0.5 0 0.7
v -0.4 0 0.7
v -0.3 0 0.7
v -0.2 0 0.7
v 0 0 0.7
v 0.1 0 0.7
v 0.2 0 0.7
v 0.3 0 0.7
v 0.4 0 0.7
v -0.7 0 0.6
v -0.6 0 0.6
v -0.5 0 0.6
v -0.4 0 0.6
v -0.3 0 0.6
v -0.2 0 0.6
v -0.1 0 0.6
v 0 0 0.6
v 0.1 0 0.6
v 0.2 0 0.6
v 0.3 0 0.6
v 0.4 0 0.6
v -0.7 0 0.5
v -0.6 0 0.5
v -0.5 0 0.5
v -0.4 0 0.5
v -0.3 0 0.5
v -0.2 0 0.5
v -0.1 0 0.5
v 0 0 0.5
v 0.1 0 0.5
v 0.2 0 0.5
v 0.3 0 0.5
v 0.4 0 0.5
v -0.7 0 0.4
v -0.6 0 0.4
v -0.5 0 0.4
v -0.4 0 0.4
v -0.3 0 0.4
v -0.2 0 0.4
v -0.1 0 0.4
v 0.1 0 0.4
v 0.2 0 0.4
v 0.3 0 0.4
v 0.4 0 0.4
v -0.7 0 0.3
v -0.6 0 0.3
v -0.5 0 0.3
v -0.4 0 0.3
v -0.3 0 0.3
v -0.2 0 0.3
v -0.1 0 0.3
v 0.1 0 0.3
v 0.2 0 0.3
v 0.3 0 0.3
v 0.4 0 0.3
v -0.7 0 0.2
v -0.6 0 0.2
v -0.5 0 0.2
v -0.4 0 0.2
v -0.3 0 0.2
v -0.2 0 0.2
v -0.1 0 0.2
v 0 0 0.2
v 0.1 0 0.2
v 0.2 0 0.2
v 0.3 0 0.2
v 0.4 0 0.2
v -0.7 0 0.1
v -0.6 0 0.1
v -0.5 0 0.1
v -0.4 0 0.1
v -0.3 0 0.1
v -0.2 0 0.1
v -0.1 0 0.1
v 0 0 0.1
v 0.1 0 0.1
v 0.2 0 0.1
v 0.3 0 0.1
v 0.4 0 0.1
v -0.7 0 0
v -0.6 0 0
v -0.5 0 0
v -0.4 0 0
v -0.3 0 0
v -0.2 0 0
v 0 0 0
v 0.1 0 0
v 0.2 0 0
v 0.3 0 0
v 0.4 0 0
v -0.7 0.1 0.7
v -0.6 0.1 0.7
v 0.3 0.1 0.7
v 0.4 0.1 0.7
v -0.7 0.1 0.6
v -0.6 0.1 0.6
v 0.3 0.1 0.6
v 0.4 0.1 0.6
v -0.7 0.1 0.1
v -0.6 0.1 0.1
v 0.3 0.1 0.1
v 0.4 0.1 0.1
v -0.7 0.1 0
v -0.6 0.1 0
v 0.3 0.1 0
v 0.4 0.1 0
v -0.6 0.2 0.7
v -0.5 0.2 0.7
v -0.4 0.2 0.7
v -0.3 0.2 0.7
v -0.2 0.2 0.7
v -0.1 0.2 0.7
v 0 0.2 0.7
v 0.1 0.2 0.7
v 0.2 0.2 0.7
v 0.3 0.2 0.7
v -0.7 0.2 0.6
v -0.6 0.2 0.6
v -0.5 0.2 0.6
v -0.4 0.2 0.6
v -0.3 0.2 0.6
v -0.2 0.2 0.6
v -0.1 0.2 0.6
v 0 0.2 0.6
v 0.1 0.2 0.6
v 0.2 0.2 0.6
v 0.3 0.2 0.6
v 0.4 0.2 0.6
v -0.7 0.2 0.5
v -0.6 0.2 0.5
v -0.2 0.2 0.5
v -0.1 0.2 0.5
v 0 0.2 0.5
v 0.2 0.2 0.5
v 0.3 0.2 0.5
v 0.4 0.2 0.5
v -0.7 0.2 0.4
v -0.6 0.2 0.4
v -0.2 0.2 0.4
v -0.1 0.2 0.4
v 0 0.2 0.4
v 0.1 0.2 0.4
v 0.2 0.2 0.4
v 0.3 0.2 0.4
v 0.4 0.2 0.4
v -0.7 0.2 0.3
v -0.6 0.2 0.3
v -0.5 0.2 0.3
v -0.4 0.2 0.3
v -0.3 0.2 0.3
v -0.2 0.2 0.3
v -0.1 0.2 0.3
v 0.3 0.2 0.3
v 0.4 0.2 0.3
v -0.7 0.2 0.2
v -0.6 0.2 0.2
v -0.5 0.2 0.2
v -0.3 0.2 0.2
v -0.2 0.2 0.2
v -0.1 0.2 0.2
v 0.3 0.2 0.2
v 0.4 0.2 0.2
v -0.7 0.2 0.1
v -0.6 0.2 0.1
v -0.5 0.2 0.1
v -0.4 0.2 0.1
v -0.3 0.2 0.1
v -0.2 0.2 0.1
v -0.1 0.2 0.1
v 0 0.2 0.1
v 0.1 0.2 0.1
v 0.2 0.2 0.1
v 0.3 0.2 0.1
v 0.4 0.2 0.1
v -0.6 0.2 0
v -0.5 0.2 0
v -0.4 0.2 0
v -0.3 0.2 0
v -0.2 0.2 0
v -0.1 0.2 0
v 0 0.2 0
v 0.1 0.2 0
v 0.2 0.2 0
v 0.3 0.2 0
v -0.6 0.3 0.6
v -0.5 0.3 0.6
v -0.3 0.3 0.6
v -0.2 0.3 0.6
v -0.6 0.3 0.5
v -0.5 0.3 0.5
v -0.4 0.3 0.5
v -0.3 0.3 0.5
v -0.2 0.3 0.5
v -0.6 0.3 0.4
v -0.5 0.3 0.4
v -0.4 0.3 0.4
v -0.3 0.3 0.4
v -0.2 0.3 0.4
v -0.1 0.3 0.4
v 0 0.3 0.4
v 0.1 0.3 0.4
v 0.2 0.3 0.4
v 0.3 0.3 0.4
v -0.6 0.3 0.3
v -0.5 0.3 0.3
v -0.4 0.3 0.3
v -0.3 0.3 0.3
v -0.2 0.3 0.3
v -0.1 0.3 0.3
v 0 0.3 0.3
v 0.1 0.3 0.3
v 0.2 0.3 0.3
v -0.1 0.3 0.2
v 0 0.3 0.2
v 0.1 0.3 0.2
v 0.2 0.3 0.2
v 0.3 0.3 0.2
v -0.1 0.3 0.1
v 0 0.3 0.1
v 0.2 0.3 0.1
v 0.3 0.3 0.1

# faces
f 9/1/1 2/1/1 1/1/1
f 10/2/1 3/2/1 2/2/1
f 10/1/1 2/1/1 9/1/1
f 11/1/1 4/1/1 3/1/1
f 11/2/1 3/2/1 10/2/1
f 12/3/1 5/3/1 4/3/1
f 12/1/1 4/1/1 11/1/1
f 13/4/1 6/4/1 5/4/1
f 13/3/1 5/3/1 12/3/1
f 14/5/1 7/5/1 6/5/1
f 14/4/1 6/4/1 13/4/1
f 15/1/1 8/1/1 7/1/1
f 15/5/1 7/5/1 14/5/1
f 16/1/1 8/1/1 15/1/1
f 17/6/1 11/6/1 10/6/1
f 18/7/1 12/7/1 11/7/1
f 18/6/1 11/6/1 17/6/1
f 19/8/1 13/8/1 12/8/1
f 19/7/1 12/7/1 18/7/1
f 20/9/1 14/9/1 13/9/1
f 20/8/1 13/8/1 19/8/1
f 21/10/1 15/10/1 14/10/1
f 21/9/1 14/9/1 20/9/1
f 22/10/1 15/10/1 21/10/1
f 27/17/1 24/17/1 23/17/1
f 28/17/1 24/17/1 27/17/1
f 32/22/1 26/22/1 25/22/1
f 33/22/1 26/22/1 32/22/1
f 34/23/1 29/23/1 28/23/1
f 35/24/1 30/24/1 29/24/1
f 35/23/1 29/23/1 34/23/1
f 36/18/1 31/18/1 30/18/1
f 36/24/1 30/24/1 35/24/1
f 37/18/1 31/18/1 36/18/1
f 42/24/1 39/24/1 38/24/1
f 43/50/1 40/50/1 39/50/1
f 43/24/1 39/24/1 42/24/1
f 44/51/1 41/51/1 40/51/1
f 44/50/1 40/50/1 43/50/1
f 45/51/1 41/51/1 44/51/1
f 46/18/2 47/18/2 50/18/2
f 47/43/2 48/43/2 51/43/2
f 50/18/2 47/18/2 51/18/2
f 48/44/2 49/44/2 52/44/2
f 51/43/2 48/43/2 52/43/2
f 52/44/2 49/44/2 53/44/2
f 54/1/2 55/1/2 58/1/2
f 58/1/2 55/1/2 59/1/2
f 56/45/2 57/45/2 63/45/2
f 63/45/2 57/45/2 64/45/2
f 61/18/2 62/18/2 65/18/2
f 60/18/2 61/18/2 65/18/2
f 62/51/2 63/51/2 66/51/2
f 65/18/2 62/18/2 66/18/2
f 66/51/2 63/51/2 67/51/2
f 68/10/2 69/10/2 76/10/2
f 69/4/2 70/4/2 77/4/2
f 76/10/2 69/10/2 77/10/2
f 70/7/2 71/7/2 78/7/2
f 77/4/2 70/4/2 78/4/2
f 71/10/2 72/10/2 79/10/2
f 78/7/2 71/7/2 79/7/2
f 72/4/2 73/4/2 80/4/2
f 79/10/2 72/10/2 80/10/2
f 73/22/2 74/22/2 81/22/2
f 80/4/2 73/4/2 81/4/2
f 74/5/2 75/5/2 82/5/2
f 81/22/2 74/22/2 82/22/2
f 82/5/2 75/5/2 83/5/2
f 77/42/2 78/42/2 84/42/2
f 78/4/2 79/4/2 85/4/2
f 84/42/2 78/42/2 85/42/2
f 79/8/2 80/8/2 86/8/2
f 85/4/2 79/4/2 86/4/2
f 80/10/2 81/10/2 87/10/2
f 86/8/2 80/8/2 87/8/2
f 81/59/2 82/59/2 88/59/2
f 87/10/2 81/10/2 88/10/2
f 88/59/2 82/59/2 89/59/2
f 92/1/3 91/1/3 90/1/3
f 93/1/3 91/1/3 92/1/3
f 95/11/3 93/11/3 92/11/3
f 96/17/3 94/17/3 93/17/3
f 96/11/3 93/11/3 95/11/3
f 97/17/3 94/17/3 96/17/3
f 98/5/3 96/5/3 95/5/3
f 99/26/3 97/26/3 96/26/3
f 99/5/3 96/5/3 98/5/3
f 100/26/3 97/26/3 99/26/3
f 101/1/3 99/1/3 98/1/3
f 101/1/3 100/1/3 99/1/3
f 102/1/3 100/1/3 101/1/3
f 103/1/3 100/1/3 102/1/3
f 104/9/3 102/9/3 101/9/3
f 105/40/3 103/40/3 102/40/3
f 105/9/3 102/9/3 104/9/3
f 106/40/3 103/40/3 105/40/3
f 107/8/3 105/8/3 104/8/3
f 107/46/3 106/46/3 105/46/3
f 108/46/3 106/46/3 107/46/3
f 109/8/3 107/8/3 104/8/3
f 110/22/3 108/22/3 107/22/3
f 110/8/3 107/8/3 109/8/3
f 111/22/3 108/22/3 110/22/3
f 112/49/3 110/49/3 109/49/3
f 113/52/3 111/52/3 110/52/3
f 113/49/3 110/49/3 112/49/3
f 114/52/3 111/52/3 113/52/3
f 115/7/3 113/7/3 112/7/3
f 116/9/3 114/9/3 113/9/3
f 116/7/3 113/7/3 115/7/3
f 117/9/3 114/9/3 116/9/3
f 118/40/3 116/40/3 115/40/3
f 119/1/3 117/1/3 116/1/3
f 119/40/3 116/40/3 118/40/3
f 120/1/3 117/1/3 119/1/3
f 121/10/3 119/10/3 118/10/3
f 122/10/3 119/10/3 121/10/3
f 125/6/3 124/6/3 123/6/3
f 126/6/3 124/6/3 125/6/3
f 128/23/3 127/23/3 126/23/3
f 129/23/3 127/23/3 128/23/3
f 130/31/3 129/31/3 128/31/3
f 131/31/3 129/31/3 130/31/3
f 132/31/3 129/31/3 131/31/3
f 133/18/3 132/18/3 131/18/3
f 134/18/3 132/18/3 133/18/3
f 137/42/3 136/42/3 135/42/3
f 138/42/3 136/42/3 137/42/3
f 141/24/3 140/24/3 139/24/3
f 142/24/3 140/24/3 141/24/3
f 143/18/3 142/18/3 141/18/3
f 144/18/3 142/18/3 143/18/3
f 145/50/3 144/50/3 143/50/3
f 146/50/3 144/50/3 145/50/3
f 147/18/3 146/18/3 145/18/3
f 148/18/3 146/18/3 147/18/3
f 149/18/4 150/18/4 151/18/4
f 151/18/4 150/18/4 152/18/4
f 151/27/4 152/27/4 153/27/4
f 153/27/4 152/27/4 154/27/4
f 153/18/4 154/18/4 155/18/4
f 155/18/4 154/18/4 156/18/4
f 155/44/4 156/44/4 157/44/4
f 157/44/4 156/44/4 158/44/4
f 159/10/4 160/10/4 161/10/4
f 161/10/4 160/10/4 162/10/4
f 163/51/4 164/51/4 165/51/4
f 165/51/4 164/51/4 166/51/4
f 165/55/4 166/55/4 167/55/4
f 167/55/4 166/55/4 168/55/4
f 168/55/4 166/55/4 169/55/4
f 168/51/4 169/51/4 171/51/4
f 171/51/4 169/51/4 172/51/4
f 170/59/4 171/59/4 173/59/4
f 173/59/4 171/59/4 174/59/4
f 175/1/4 176/1/4 177/1/4
f 177/1/4 176/1/4 178/1/4
f 177/4/4 178/4/4 180/4/4
f 178/22/4 179/22/4 181/22/4
f 180/4/4 178/4/4 181/4/4
f 181/22/4 179/22/4 182/22/4
f 180/11/4 181/11/4 183/11/4
f 181/3/4 182/3/4 184/3/4
f 183/11/4 181/11/4 184/11/4
f 184/3/4 182/3/4 185/3/4
f 183/17/4 184/17/4 186/17/4
f 184/37/4 185/37/4 187/37/4
f 186/17/4 184/17/4 187/17/4
f 187/37/4 185/37/4 188/37/4
f 186/7/4 187/7/4 189/7/4
f 187/42/4 188/42/4 190/42/4
f 189/7/4 187/7/4 190/7/4
f 190/42/4 188/42/4 191/42/4
f 189/45/4 190/45/4 192/45/4
f 190/7/4 191/7/4 192/7/4
f 192/7/4 191/7/4 193/7/4
f 189/45/4 192/45/4 194/45/4
f 192/49/4 193/49/4 195/49/4
f 194/45/4 192/45/4 195/45/4
f 195/49/4 193/49/4 196/49/4
f 194/9/4 195/9/4 197/9/4
f 195/11/4 196/11/4 198/11/4
f 197/9/4 195/9/4 198/9/4
f 198/11/4 196/11/4 199/11/4
f 197/52/4 198/52/4 200/52/4
f 198/22/4 199/22/4 201/22/4
f 200/52/4 198/52/4 201/52/4
f 201/22/4 199/22/4 202/22/4
f 200/1/4 201/1/4 203/1/4
f 201/45/4 202/45/4 204/45/4
f 203/1/4 201/1/4 204/1/4
f 204/45/4 202/45/4 205/45/4
f 203/5/4 204/5/4 206/5/4
f 206/5/4 204/5/4 207/5/4
f 219/1/5 209/1/5 208/1/5
f 220/11/5 210/11/5 209/11/5
f 220/1/5 209/1/5 219/1/5
f 221/5/5 211/5/5 210/5/5
f 221/11/5 210/11/5 220/11/5
f 222/1/5 212/1/5 211/1/5
f 222/5/5 211/5/5 221/5/5
f 223/9/5 213/9/5 212/9/5
f 223/1/5 212/1/5 222/1/5
f 224/8/5 214/8/5 213/8/5
f 224/9/5 213/9/5 223/9/5
f 225/8/5 214/8/5 224/8/5
f 226/49/5 215/49/5 214/49/5
f 226/8/5 214/8/5 225/8/5
f 227/7/5 216/7/5 215/7/5
f 227/49/5 215/49/5 226/49/5
f 228/40/5 217/40/5 216/40/5
f 228/7/5 216/7/5 227/7/5
f 229/10/5 218/10/5 217/10/5
f 229/40/5 217/40/5 228/40/5
f 230/10/5 218/10/5 229/10/5
f 231/2/5 220/2/5 219/2/5
f 232/12/5 221/12/5 220/12/5
f 232/2/5 220/2/5 231/2/5
f 232/12/5 222/12/5 221/12/5
f 233/12/5 222/12/5 232/12/5
f 234/32/5 223/32/5 222/32/5
f 234/12/5 222/12/5 233/12/5
f 235/38/5 224/38/5 223/38/5
f 235/32/5 223/32/5 234/32/5
f 236/12/5 225/12/5 224/12/5
f 236/38/5 224/38/5 235/38/5
f 237/16/5 226/16/5 225/16/5
f 237/12/5 225/12/5 236/12/5
f 238/13/5 227/13/5 226/13/5
f 238/16/5 226/16/5 237/16/5
f 239/33/5 228/33/5 227/33/5
f 239/13/5 227/13/5 238/13/5
f 240/25/5 229/25/5 228/25/5
f 240/33/5 228/33/5 239/33/5
f 241/4/5 230/4/5 229/4/5
f 241/25/5 229/25/5 240/25/5
f 242/4/5 230/4/5 241/4/5
f 243/1/5 232/1/5 231/1/5
f 244/13/5 233/13/5 232/13/5
f 244/1/5 232/1/5 243/1/5
f 245/12/5 234/12/5 233/12/5
f 245/13/5 233/13/5 244/13/5
f 246/16/5 235/16/5 234/16/5
f 246/12/5 234/12/5 245/12/5
f 247/38/5 236/38/5 235/38/5
f 247/16/5 235/16/5 246/16/5
f 248/32/5 237/32/5 236/32/5
f 248/38/5 236/38/5 247/38/5
f 249/33/5 238/33/5 237/33/5
f 249/32/5 237/32/5 248/32/5
f 249/33/5 239/33/5 238/33/5
f 250/16/5 240/16/5 239/16/5
f 250/33/5 239/33/5 249/33/5
f 251/25/5 241/25/5 240/25/5
f 251/16/5 240/16/5 250/16/5
f 252/7/5 242/7/5 241/7/5
f 252/25/5 241/25/5 251/25/5
f 253/7/5 242/7/5 252/7/5
f 254/3/5 244/3/5 243/3/5
f 255/14/5 245/14/5 244/14/5
f 255/3/5 244/3/5 254/3/5
f 256/16/5 246/16/5 245/16/5
f 256/14/5 245/14/5 255/14/5
f 256/16/5 247/16/5 246/16/5
f 257/16/5 247/16/5 256/16/5
f 258/13/5 248/13/5 247/13/5
f 258/16/5 247/16/5 257/16/5
f 259/16/5 249/16/5 248/16/5
f 259/13/5 248/13/5 258/13/5
f 260/25/5 250/25/5 249/25/5
f 260/16/5 249/16/5 259/16/5
f 261/16/5 251/16/5 250/16/5
f 261/25/5 250/25/5 260/25/5
f 262/13/5 252/13/5 251/13/5
f 262/16/5 251/16/5 261/16/5
f 263/10/5 253/10/5 252/10/5
f 263/13/5 252/13/5 262/13/5
f 264/10/5 253/10/5 263/10/5
f 265/4/5 255/4/5 254/4/5
f 266/15/5 256/15/5 255/15/5
f 266/4/5 255/4/5 265/4/5
f 267/16/5 257/16/5 256/16/5
f 267/15/5 256/15/5 266/15/5
f 268/25/5 258/25/5 257/25/5
f 268/16/5 257/16/5 267/16/5
f 269/13/5 259/13/5 258/13/5
f 269/25/5 258/25/5 268/25/5
f 270/39/5 260/39/5 259/39/5
f 270/13/5 259/13/5 269/13/5
f 271/13/5 262/13/5 261/13/5
f 271/39/5 260/39/5 270/39/5
f 271/13/5 261/13/5 260/13/5
f 272/13/5 262/13/5 271/13/5
f 273/13/5 262/13/5 272/13/5
f 274/16/5 263/16/5 262/16/5
f 274/13/5 262/13/5 273/13/5
f 275/4/5 264/4/5 263/4/5
f 275/16/5 263/16/5 274/16/5
f 276/4/5 264/4/5 275/4/5
f 277/5/5 266/5/5 265/5/5
f 278/16/5 267/16/5 266/16/5
f 278/5/5 266/5/5 277/5/5
f 279/25/5 268/25/5 267/25/5
f 279/16/5 267/16/5 278/16/5
f 280/33/5 269/33/5 268/33/5
f 280/25/5 268/25/5 279/25/5
f 281/39/5 270/39/5 269/39/5
f 281/33/5 269/33/5 280/33/5
f 282/14/5 271/14/5 270/14/5
f 282/39/5 270/39/5 281/39/5
f 283/13/5 272/13/5 271/13/5
f 283/14/5 271/14/5 282/14/5
f 284/16/5 273/16/5 272/16/5
f 284/13/5 272/13/5 283/13/5
f 285/56/5 274/56/5 273/56/5
f 285/16/5 273/16/5 284/16/5
f 286/16/5 275/16/5 274/16/5
f 286/56/5 274/56/5 285/56/5
f 287/22/5 276/22/5 275/22/5
f 287/16/5 275/16/5 286/16/5
f 288/22/5 276/22/5 287/22/5
f 289/1/5 278/1/5 277/1/5
f 290/4/5 279/4/5 278/4/5
f 290/1/5 278/1/5 289/1/5
f 291/11/5 280/11/5 279/11/5
f 291/4/5 279/4/5 290/4/5
f 292/17/5 281/17/5 280/17/5
f 292/11/5 280/11/5 291/11/5
f 293/7/5 282/7/5 281/7/5
f 293/17/5 281/17/5 292/17/5
f 294/45/5 284/45/5 283/45/5
f 294/7/5 282/7/5 293/7/5
f 294/45/5 283/45/5 282/45/5
f 295/9/5 285/9/5 284/9/5
f 295/45/5 284/45/5 294/45/5
f 296/52/5 286/52/5 285/52/5
f 296/9/5 285/9/5 295/9/5
f 297/1/5 287/1/5 286/1/5
f 297/52/5 286/52/5 296/52/5
f 298/5/5 288/5/5 287/5/5
f 298/1/5 287/1/5 297/1/5
f 299/5/5 288/5/5 298/5/5
f 300/1/6 301/1/6 304/1/6
f 304/1/6 301/1/6 305/1/6
f 302/10/6 303/10/6 306/10/6
f 306/10/6 303/10/6 307/10/6
f 308/1/6 309/1/6 312/1/6
f 312/1/6 309/1/6 313/1/6
f 310/5/6 311/5/6 314/5/6
f 314/5/6 311/5/6 315/5/6
f 316/17/6 317/17/6 327/17/6
f 317/26/6 318/26/6 328/26/6
f 327/17/6 317/17/6 328/17/6
f 318/1/6 319/1/6 329/1/6
f 328/26/6 318/26/6 329/26/6
f 319/40/6 320/40/6 330/40/6
f 329/1/6 319/1/6 330/1/6
f 320/46/6 321/46/6 331/46/6
f 330/40/6 320/40/6 331/40/6
f 321/22/6 322/22/6 332/22/6
f 331/46/6 321/46/6 332/46/6
f 322/52/6 323/52/6 333/52/6
f 332/22/6 322/22/6 333/22/6
f 323/9/6 324/9/6 334/9/6
f 333/52/6 323/52/6 334/52/6
f 324/1/6 325/1/6 335/1/6
f 334/9/6 324/9/6 335/9/6
f 335/1/6 325/1/6 336/1/6
f 326/6/6 327/6/6 338/6/6
f 338/6/6 327/6/6 339/6/6
f 331/22/6 332/22/6 340/22/6
f 332/21/6 333/21/6 341/21/6
f 340/22/6 332/22/6 341/22/6
f 333/53/6 334/53/6 342/53/6
f 341/21/6 333/21/6 342/21/6
f 334/53/6 335/53/6 342/53/6
f 335/21/6 336/21/6 343/21/6
f 342/53/6 335/53/6 343/53/6
f 336/42/6 337/42/6 344/42/6
f 343/21/6 336/21/6 344/21/6
f 344/42/6 337/42/6 345/42/6
f 338/7/6 339/7/6 346/7/6
f 346/7/6 339/7/6 347/7/6
f 340/4/6 341/4/6 348/4/6
f 342/21/6 343/21/6 349/21/6
f 348/4/6 341/4/6 349/4/6
f 341/21/6 342/21/6 349/21/6
f 343/21/6 344/21/6 349/21/6
f 349/21/6 344/21/6 350/21/6
f 350/21/6 344/21/6 351/21/6
f 351/21/6 344/21/6 352/21/6
f 344/4/6 345/4/6 353/4/6
f 352/21/6 344/21/6 353/21/6
f 353/4/6 345/4/6 354/4/6
f 346/8/6 347/8/6 355/8/6
f 355/8/6 347/8/6 356/8/6
f 348/1/6 349/1/6 360/1/6
f 360/1/6 349/1/6 361/1/6
f 353/8/6 354/8/6 362/8/6
f 362/8/6 354/8/6 363/8/6
f 355/9/6 356/9/6 364/9/6
f 358/21/6 359/21/6 365/21/6
f 364/9/6 356/9/6 365/9/6
f 356/21/6 357/21/6 365/21/6
f 357/21/6 358/21/6 365/21/6
f 359/21/6 360/21/6 365/21/6
f 365/21/6 360/21/6 366/21/6
f 366/21/6 360/21/6 367/21/6
f 360/46/6 361/46/6 368/46/6
f 367/21/6 360/21/6 368/21/6
f 368/46/6 361/46/6 369/46/6
f 362/10/6 363/10/6 370/10/6
f 370/10/6 363/10/6 371/10/6
f 364/10/6 365/10/6 372/10/6
f 365/21/6 366/21/6 373/21/6
f 372/10/6 365/10/6 373/10/6
f 366/30/6 367/30/6 374/30/6
f 373/21/6 366/21/6 374/21/6
f 374/30/6 367/30/6 375/30/6
f 367/21/6 368/21/6 376/21/6
f 375/30/6 367/30/6 376/30/6
f 368/4/6 369/4/6 377/4/6
f 376/21/6 368/21/6 377/21/6
f 377/4/6 369/4/6 378/4/6
f 370/59/6 371/59/6 382/59/6
f 382/59/6 371/59/6 383/59/6
f 373/22/6 374/22/6 384/22/6
f 374/3/6 375/3/6 385/3/6
f 384/22/6 374/22/6 385/22/6
f 375/37/6 376/37/6 386/37/6
f 385/3/6 375/3/6 386/3/6
f 376/42/6 377/42/6 387/42/6
f 386/37/6 376/37/6 387/37/6
f 377/7/6 378/7/6 388/7/6
f 387/42/6 377/42/6 388/42/6
f 378/49/6 379/49/6 389/49/6
f 388/7/6 378/7/6 389/7/6
f 379/11/6 380/11/6 390/11/6
f 389/49/6 379/49/6 390/49/6
f 380/22/6 381/22/6 391/22/6
f 390/11/6 380/11/6 391/11/6
f 381/45/6 382/45/6 392/45/6
f 391/22/6 381/22/6 392/22/6
f 392/45/6 382/45/6 393/45/6
f 394/23/6 395/23/6 398/23/6
f 395/31/6 396/31/6 399/31/6
f 398/23/6 395/23/6 399/23/6
f 399/31/6 396/31/6 400/31/6
f 396/18/6 397/18/6 401/18/6
f 400/31/6 396/31/6 401/31/6
f 401/18/6 397/18/6 402/18/6
f 399/24/6 400/24/6 403/24/6
f 398/24/6 399/24/6 403/24/6
f 403/24/6 400/24/6 404/24/6
f 400/18/6 401/18/6 405/18/6
f 404/24/6 400/24/6 405/24/6
f 401/43/6 402/43/6 406/43/6
f 405/18/6 401/18/6 406/18/6
f 406/43/6 402/43/6 407/43/6
f 403/18/6 404/18/6 413/18/6
f 404/27/6 405/27/6 414/27/6
f 413/18/6 404/18/6 414/18/6
f 405/18/6 406/18/6 415/18/6
f 414/27/6 405/27/6 415/27/6
f 406/44/6 407/44/6 416/44/6
f 415/18/6 406/18/6 416/18/6
f 416/44/6 407/44/6 417/44/6
f 408/24/6 409/24/6 418/24/6
f 409/18/6 410/18/6 419/18/6
f 418/24/6 409/24/6 419/24/6
f 410/50/6 411/50/6 420/50/6
f 419/18/6 410/18/6 420/18/6
f 411/18/6 412/18/6 421/18/6
f 420/50/6 411/50/6 421/50/6
f 418/50/6 419/50/6 422/50/6
f 419/47/6 420/47/6 423/47/6
f 422/50/6 419/50/6 423/50/6
f 420/24/6 421/24/6 424/24/6
f 423/47/6 420/47/6 424/47/6
f 421/18/6 412/18/6 425/18/6
f 424/24/6 421/24/6 425/24/6
f 425/18/6 412/18/6 426/18/6
f 422/51/6 423/51/6 427/51/6
f 423/55/6 424/55/6 428/55/6
f 427/51/6 423/51/6 428/51/6
f 424/55/6 425/55/6 428/55/6
f 425/51/6 426/51/6 429/51/6
f 428/55/6 425/55/6 429/55/6
f 429/51/6 426/51/6 430/51/6
